PathFileType	4	(X/Y/Z) abd_0kg_1.trc																										
DataRate	CameraRate	NumFrames	NumMarkers	Units	OrigDataRate	OrigDataStartFrame	OrigNumFrames																					
100	100	53	9	mm	100	137	1091																					
Frame#	Time	gu			centelbow			EpL			centpxt8			centijc7			ij			ts			aa			ai		
		X1	Y1	Z1	X2	Y2	Z2	X3	Y3	Z3	X4	Y4	Z4	X5	Y5	Z5	X6	Y6	Z6	X7	Y7	Z7	X8	Y8	Z8	X9	Y9	Z9  
136	1.36	-73.166	-20.427	165.393	-107.514	-262.809	197.886	-87.174	-258.324	222.494	-46.816	-153.158	-8.669	-46.816	31.938	-8.669	0	0	0	-136.079	31.401	61.103	-97.517	18.78	173.257	-160.041	-79.549	62.399
137	1.37	-73.046	-20.449	165.476	-107.397	-262.835	197.932	-87.063	-258.353	222.546	-46.816	-153.158	-8.669	-46.816	31.938	-8.669	0	0	0	-135.998	31.46	61.137	-97.442	18.831	173.292	-159.96	-79.489	62.424
138	1.38	-72.921	-20.414	165.385	-107.249	-262.806	197.82	-86.918	-258.323	222.437	-46.816	-153.158	-8.669	-46.816	31.938	-8.669	0	0	0	-135.948	31.535	61.067	-97.397	18.904	173.224	-159.909	-79.415	62.351
139	1.39	-72.838	-20.396	165.251	-107.153	-262.79	197.687	-86.823	-258.306	222.304	-46.816	-153.158	-8.669	-46.816	31.938	-8.669	0	0	0	-135.91	31.523	60.948	-97.366	18.894	173.107	-159.872	-79.427	62.232
140	1.4	-72.813	-20.437	165.187	-107.141	-262.828	197.631	-86.81	-258.344	222.247	-46.816	-153.158	-8.669	-46.816	31.938	-8.669	0	0	0	-135.872	31.356	60.846	-97.33	18.722	173.005	-159.842	-79.592	62.127
141	1.41	-72.879	-20.492	165.221	-107.23	-262.882	197.649	-86.897	-258.402	222.265	-46.816	-153.158	-8.669	-46.816	31.938	-8.669	0	0	0	-135.882	31.127	60.809	-97.338	18.475	172.966	-159.865	-79.819	62.079
142	1.42	-72.988	-20.496	165.308	-107.338	-262.892	197.689	-87.006	-258.417	222.307	-46.816	-153.158	-8.669	-46.816	31.938	-8.669	0	0	0	-135.952	31.011	60.836	-97.415	18.336	172.992	-159.945	-79.932	62.084
143	1.43	-73.019	-20.439	165.381	-107.341	-262.846	197.714	-87.014	-258.371	222.336	-46.816	-153.158	-8.669	-46.816	31.938	-8.669	0	0	0	-135.995	31.056	60.895	-97.476	18.368	173.056	-159.981	-79.889	62.124
144	1.44	-72.946	-20.377	165.385	-107.255	-262.788	197.698	-86.933	-258.313	222.323	-46.816	-153.158	-8.669	-46.816	31.938	-8.669	0	0	0	-135.92	31.143	60.963	-97.414	18.453	173.128	-159.891	-79.805	62.182
145	1.45	-72.856	-20.368	165.292	-107.19	-262.775	197.605	-86.87	-258.303	222.232	-46.816	-153.158	-8.669	-46.816	31.938	-8.669	0	0	0	-135.765	31.148	61.006	-97.259	18.451	173.171	-159.728	-79.802	62.216
146	1.46	-72.84	-20.382	165.15	-107.201	-262.786	197.461	-86.881	-258.316	222.089	-46.816	-153.158	-8.669	-46.816	31.938	-8.669	0	0	0	-135.688	31.061	61.005	-97.178	18.349	173.166	-159.654	-79.888	62.2
147	1.47	-72.947	-20.371	165.073	-107.312	-262.777	197.366	-86.991	-258.308	221.994	-46.816	-153.158	-8.669	-46.816	31.938	-8.669	0	0	0	-135.793	30.956	61.006	-97.291	18.223	173.168	-159.774	-79.99	62.185
148	1.48	-73.154	-20.378	165.1	-107.524	-262.787	197.361	-87.206	-258.322	221.992	-46.816	-153.158	-8.669	-46.816	31.938	-8.669	0	0	0	-135.988	30.884	61.042	-97.507	18.127	173.209	-159.998	-80.057	62.205
149	1.49	-73.342	-20.443	165.171	-107.739	-262.853	197.403	-87.426	-258.391	222.039	-46.816	-153.158	-8.669	-46.816	31.938	-8.669	0	0	0	-136.074	30.848	61.067	-97.62	18.069	173.24	-160.116	-80.085	62.212
150	1.5	-73.394	-20.514	165.239	-107.824	-262.919	197.47	-87.519	-258.458	222.112	-46.816	-153.158	-8.669	-46.816	31.938	-8.669	0	0	0	-135.957	30.833	61.055	-97.527	18.039	173.234	-160.013	-80.098	62.185
151	1.51	-73.329	-20.541	165.269	-107.779	-262.939	197.526	-87.481	-258.476	222.173	-46.816	-153.158	-8.669	-46.816	31.938	-8.669	0	0	0	-135.739	30.826	61.055	-97.332	18.028	173.242	-159.784	-80.108	62.172
152	1.52	-73.253	-20.534	165.225	-107.708	-262.93	197.499	-87.415	-258.464	222.15	-46.816	-153.158	-8.669	-46.816	31.938	-8.669	0	0	0	-135.609	30.831	61.086	-97.235	18.026	173.284	-159.639	-80.106	62.185
153	1.53	-73.226	-20.515	165.113	-107.688	-262.911	197.37	-87.399	-258.447	222.024	-46.816	-153.158	-8.669	-46.816	31.938	-8.669	0	0	0	-135.649	30.845	61.089	-97.317	18.022	173.299	-159.679	-80.092	62.16
154	1.54	-73.246	-20.508	164.976	-107.727	-262.908	197.191	-87.441	-258.448	221.849	-46.816	-153.158	-8.669	-46.816	31.938	-8.669	0	0	0	-135.764	30.854	61.031	-97.468	18.007	173.25	-159.805	-80.081	62.074
155	1.55	-73.282	-20.572	164.859	-107.795	-262.973	197.034	-87.513	-258.519	221.696	-46.816	-153.158	-8.669	-46.816	31.938	-8.669	0	0	0	-135.819	30.875	60.967	-97.542	18.004	173.19	-159.868	-80.058	61.986
156	1.56	-73.33	-20.688	164.803	-107.893	-263.085	196.951	-87.618	-258.636	221.62	-46.816	-153.158	-8.669	-46.816	31.938	-8.669	0	0	0	-135.825	30.966	60.927	-97.56	18.073	173.151	-159.875	-79.967	61.921
157	1.57	-73.405	-20.735	164.817	-108.014	-263.128	196.943	-87.747	-258.683	221.619	-46.816	-153.158	-8.669	-46.816	31.938	-8.669	0	0	0	-135.872	31.119	60.893	-97.627	18.203	173.122	-159.918	-79.816	61.859
158	1.58	-73.479	-20.698	164.853	-108.113	-263.092	196.94	-87.853	-258.652	221.623	-46.816	-153.158	-8.669	-46.816	31.938	-8.669	0	0	0	-135.9	31.202	60.865	-97.684	18.261	173.101	-159.943	-79.734	61.8
159	1.59	-73.57	-20.678	164.811	-108.219	-263.076	196.85	-87.963	-258.641	221.537	-46.816	-153.158	-8.669	-46.816	31.938	-8.669	0	0	0	-135.851	31.16	60.81	-97.665	18.191	173.052	-159.896	-79.775	61.71
160	1.6	-73.744	-20.692	164.681	-108.403	-263.096	196.674	-88.15	-258.665	221.364	-46.816	-153.158	-8.669	-46.816	31.938	-8.669	0	0	0	-135.894	31.135	60.682	-97.739	18.139	172.932	-159.941	-79.8	61.55
161	1.61	-73.951	-20.688	164.58	-108.598	-263.097	196.541	-88.349	-258.668	221.234	-46.816	-153.158	-8.669	-46.816	31.938	-8.669	0	0	0	-136.145	31.231	60.544	-98.023	18.218	172.803	-160.188	-79.705	61.386
162	1.62	-74.084	-20.665	164.578	-108.702	-263.082	196.515	-88.458	-258.651	221.214	-46.816	-153.158	-8.669	-46.816	31.938	-8.669	0	0	0	-136.423	31.368	60.482	-98.336	18.338	172.752	-160.463	-79.569	61.299
163	1.63	-74.167	-20.664	164.634	-108.761	-263.087	196.55	-88.524	-258.655	221.254	-46.816	-153.158	-8.669	-46.816	31.938	-8.669	0	0	0	-136.521	31.438	60.521	-98.474	18.375	172.8	-160.571	-79.498	61.3
164	1.64	-74.277	-20.696	164.7	-108.858	-263.124	196.593	-88.628	-258.692	221.303	-46.816	-153.158	-8.669	-46.816	31.938	-8.669	0	0	0	-136.463	31.397	60.634	-98.463	18.286	172.924	-160.529	-79.535	61.362
165	1.65	-74.42	-20.73	164.695	-108.985	-263.162	196.571	-88.76	-258.729	221.283	-46.816	-153.158	-8.669	-46.816	31.938	-8.669	0	0	0	-136.395	31.268	60.717	-98.438	18.111	173.015	-160.478	-79.661	61.395
166	1.66	-74.595	-20.712	164.53	-109.143	-263.148	196.4	-88.917	-258.714	221.112	-46.816	-153.158	-8.669	-46.816	31.938	-8.669	0	0	0	-136.376	31.156	60.659	-98.441	17.965	172.961	-160.481	-79.768	61.307
167	1.67	-74.851	-20.623	164.275	-109.389	-263.058	196.16	-89.16	-258.623	220.869	-46.816	-153.158	-8.669	-46.816	31.938	-8.669	0	0	0	-136.348	31.173	60.493	-98.42	17.958	172.795	-160.49	-79.743	61.13
168	1.68	-75.123	-20.534	164.153	-109.684	-262.961	196.07	-89.456	-258.524	220.779	-46.816	-153.158	-8.669	-46.816	31.938	-8.669	0	0	0	-136.282	31.278	60.371	-98.373	18.037	172.676	-160.477	-79.627	60.998
169	1.69	-75.218	-20.557	164.233	-109.858	-262.969	196.179	-89.637	-258.534	220.894	-46.816	-153.158	-8.669	-46.816	31.938	-8.669	0	0	0	-136.208	31.316	60.389	-98.341	18.034	172.703	-160.473	-79.573	60.992
170	1.7	-75.113	-20.686	164.332	-109.884	-263.08	196.281	-89.668	-258.653	221.003	-46.816	-153.158	-8.669	-46.816	31.938	-8.669	0	0	0	-136.171	31.259	60.483	-98.338	17.918	172.802	-160.516	-79.613	61.049
171	1.71	-74.99	-20.827	164.345	-109.931	-263.199	196.272	-89.714	-258.788	220.995	-46.816	-153.158	-8.669	-46.816	31.938	-8.669	0	0	0	-136.214	31.222	60.554	-98.373	17.822	172.863	-160.629	-79.635	61.089
172	1.72	-74.943	-20.946	164.367	-110.066	-263.295	196.265	-89.842	-258.904	220.986	-46.816	-153.158	-8.669	-46.816	31.938	-8.669	0	0	0	-136.3	31.237	60.59	-98.413	17.802	172.879	-160.76	-79.61	61.117
173	1.73	-74.891	-21.055	164.43	-110.18	-263.383	196.309	-89.947	-259.008	221.026	-46.816	-153.158	-8.669	-46.816	31.938	-8.669	0	0	0	-136.312	31.223	60.609	-98.367	17.774	172.877	-160.798	-79.618	61.145
174	1.74	-74.767	-21.095	164.442	-110.182	-263.406	196.305	-89.94	-259.046	221.017	-46.816	-153.158	-8.669	-46.816	31.938	-8.669	0	0	0	-136.222	31.173	60.621	-98.231	17.716	172.872	-160.726	-79.664	61.164
175	1.75	-74.641	-20.981	164.399	-110.144	-263.284	196.234	-89.895	-258.935	220.942	-46.816	-153.158	-8.669	-46.816	31.938	-8.669	0	0	0	-136.147	31.203	60.61	-98.129	17.736	172.852	-160.661	-79.632	61.154
176	1.76	-74.626	-20.765	164.374	-110.21	-263.061	196.171	-89.952	-258.724	220.874	-46.816	-153.158	-8.669	-46.816	31.938	-8.669	0	0	0	-136.217	31.385	60.548	-98.186	17.91	172.784	-160.732	-79.45	61.088
177	1.77	-74.653	-20.633	164.36	-110.343	-262.918	196.116	-90.074	-258.597	220.813	-46.816	-153.158	-8.669	-46.816	31.938	-8.669	0	0	0	-136.409	31.62	60.47	-98.367	18.138	172.701	-160.927	-79.214	61.005
178	1.78	-74.568	-20.708	164.326	-110.383	-262.98	196.039	-90.099	-258.677	220.726	-46.816	-153.158	-8.669	-46.816	31.938	-8.669	0	0	0	-136.565	31.731	60.46	-98.519	18.234	172.688	-161.099	-79.1	60.986
179	1.79	-74.404	-20.922	164.277	-110.329	-263.183	195.957	-90.031	-258.895	220.636	-46.816	-153.158	-8.669	-46.816	31.938	-8.669	0	0	0	-136.607	31.677	60.529	-98.578	18.159	172.76	-161.167	-79.147	61.041
180	1.8	-74.294	-21.103	164.199	-110.309	-263.352	195.864	-90.005	-259.074	220.54	-46.816	-153.158	-8.669	-46.816	31.938	-8.669	0	0	0	-136.547	31.592	60.569	-98.544	18.054	172.806	-161.133	-79.227	61.065
181	1.81	-74.262	-21.151	164.057	-110.357	-263.388	195.719	-90.053	-259.118	220.395	-46.816	-153.158	-8.669	-46.816	31.938	-8.669	0	0	0	-136.381	31.571	60.474	-98.391	18.02	172.714	-160.982	-79.245	60.96
182	1.82	-74.285	-21.118	163.926	-110.456	-263.346	195.569	-90.156	-259.082	220.25	-46.816	-153.158	-8.669	-46.816	31.938	-8.669	0	0	0	-136.173	31.588	60.327	-98.192	18.027	172.57	-160.786	-79.225	60.805
183	1.83	-74.368	-21.116	163.953	-110.618	-263.339	195.551	-90.33	-259.083	220.243	-46.816	-153.158	-8.669	-46.816	31.938	-8.669	0	0	0	-136.061	31.617	60.3	-98.11	18.038	172.551	-160.695	-79.192	60.762
184	1.84	-74.456	-21.218	164.126	-110.802	-263.434	195.665	-90.53	-259.188	220.372	-46.816	-153.158	-8.669	-46.816	31.938	-8.669	0	0	0	-136.078	31.64	60.393	-98.176	18.033	172.656	-160.746	-79.162	60.828
185	1.85	-74.458	-21.415	164.252	-110.899	-263.622	195.752	-90.64	-259.383	220.472	-46.816	-153.158	-8.669	-46.816	31.938	-8.669	0	0	0	-136.141	31.599	60.478	-98.279	17.968	172.752	-160.84	-79.196	60.893
186	1.86	-74.398	-21.628	164.242	-110.892	-263.828	195.731	-90.644	-259.593	220.46	-46.816	-153.158	-8.669	-46.816	31.938	-8.669	0	0	0	-136.188	31.498	60.514	-98.353	17.861	172.797	-160.901	-79.293	60.922
187	1.87	-74.391	-21.78	164.212	-110.883	-263.981	195.695	-90.651	-259.742	220.436	-46.816	-153.158	-8.669	-46.816	31.938	-8.669	0	0	0	-136.224	31.442	60.537	-98.415	17.811	172.829	-160.93	-79.351	60.941
188	1.88	-74.483	-21.828	164.277	-110.927	-264.038	195.746	-90.72	-259.791	220.505	-46.816	-153.158	-8.669	-46.816	31.938	-8.669	0	0	0	-136.284	31.448	60.556	-98.501	17.82	172.857	-160.976	-79.349	60.954
